<svg width="20" height="20" viewBox="0 0 20 20" fill="none" xmlns="http://www.w3.org/2000/svg">
<path d="M12.2666 5.18355L5.8333 11.7336C5.42157 12.1632 5.19684 12.7386 5.2083 13.3336C5.21045 13.6312 5.27163 13.9254 5.38828 14.1992C5.50494 14.473 5.67475 14.7209 5.88789 14.9286C6.10103 15.1364 6.35327 15.2997 6.62998 15.4093C6.9067 15.5188 7.2024 15.5724 7.49997 15.5669C7.79558 15.5675 8.08839 15.5097 8.36156 15.3967C8.63472 15.2837 8.88284 15.1178 9.09163 14.9086L16.025 7.97522C16.3922 7.60898 16.6836 7.17387 16.8823 6.69482C17.0811 6.21577 17.1834 5.7022 17.1833 5.18355C17.1822 4.6631 17.0781 4.14802 16.8769 3.66802C16.6757 3.18803 16.3815 2.75262 16.0112 2.38694C15.6408 2.02126 15.2017 1.73253 14.7192 1.53743C14.2368 1.34233 13.7204 1.24472 13.2 1.25022C12.1571 1.25276 11.1572 1.66591 10.4166 2.40022L3.67497 9.16689C3.14836 9.68652 2.72994 10.3053 2.44388 10.9876C2.15781 11.6699 2.00977 12.4021 2.0083 13.1419C2.01049 13.8806 2.15815 14.6116 2.44285 15.2932C2.72755 15.9748 3.14373 16.5937 3.6676 17.1145C4.19148 17.6353 4.81281 18.0478 5.4961 18.3284C6.1794 18.6091 6.91128 18.7524 7.64997 18.7502C8.38978 18.7488 9.12197 18.6007 9.80424 18.3146C10.4865 18.0286 11.1053 17.6102 11.625 17.0836L17.1416 11.5752" stroke="#49433E" stroke-width="1.5" stroke-miterlimit="10"/>
</svg>
