<svg width="12" height="12" viewBox="0 0 12 12" fill="none" xmlns="http://www.w3.org/2000/svg">
<g clip-path="url(#clip0_203_1816)">
<path d="M6 11.25C8.8995 11.25 11.25 8.8995 11.25 6C11.25 3.10051 8.8995 0.75 6 0.75C3.10051 0.75 0.75 3.10051 0.75 6C0.75 8.8995 3.10051 11.25 6 11.25Z" stroke="#7E746B" stroke-width="1.2" stroke-miterlimit="10"/>
<path d="M6.00039 6.47539C6.26273 6.47539 6.47539 6.26273 6.47539 6.00039C6.47539 5.73806 6.26273 5.52539 6.00039 5.52539C5.73806 5.52539 5.52539 5.73806 5.52539 6.00039C5.52539 6.26273 5.73806 6.47539 6.00039 6.47539Z" stroke="#7E746B" stroke-width="1.2" stroke-miterlimit="10"/>
<path d="M6 2.17969V5.52469" stroke="#7E746B" stroke-width="1.2" stroke-miterlimit="10"/>
<path d="M8.38461 8.38461L6.47461 6.47461" stroke="#7E746B" stroke-width="1.2" stroke-miterlimit="10"/>
</g>
<defs>
<clipPath id="clip0_203_1816">
<rect width="12" height="12" fill="white"/>
</clipPath>
</defs>
</svg>
