<svg width="16" height="16" viewBox="0 0 16 16" fill="none" xmlns="http://www.w3.org/2000/svg">
<path d="M15 8.00018C14.2575 9.18258 13.224 10.1547 11.9984 10.8235C10.7728 11.4923 9.39613 11.8355 8 11.8202C6.60388 11.8355 5.22717 11.4923 4.00158 10.8235C2.77599 10.1547 1.74251 9.18258 1 8.00018C1.74251 6.81777 2.77599 5.84567 4.00158 5.17684C5.22717 4.50802 6.60388 4.16486 8 4.18018C9.39613 4.16486 10.7728 4.50802 11.9984 5.17684C13.224 5.84567 14.2575 6.81777 15 8.00018Z" stroke="#4E4741" stroke-width="1.2" stroke-miterlimit="10"/>
<path d="M7.99969 11.8207C10.1094 11.8207 11.8197 10.1104 11.8197 8.00066C11.8197 5.89094 10.1094 4.18066 7.99969 4.18066C5.88996 4.18066 4.17969 5.89094 4.17969 8.00066C4.17969 10.1104 5.88996 11.8207 7.99969 11.8207Z" stroke="#4E4741" stroke-width="1.2" stroke-miterlimit="10"/>
<path d="M7.9999 9.27323C8.70314 9.27323 9.27323 8.70314 9.27323 7.9999C9.27323 7.29665 8.70314 6.72656 7.9999 6.72656C7.29665 6.72656 6.72656 7.29665 6.72656 7.9999C6.72656 8.70314 7.29665 9.27323 7.9999 9.27323Z" stroke="#4E4741" stroke-width="1.2" stroke-miterlimit="10"/>
<line x1="2.57465" y1="2.57574" x2="13.5747" y2="13.5757" stroke="#4E4741" stroke-width="1.2"/>
</svg>
