<svg width="20" height="20" viewBox="0 0 20 20" fill="none" xmlns="http://www.w3.org/2000/svg">
<path d="M10 18.7497V15.5664" stroke="#49433E" stroke-width="1.5" stroke-miterlimit="10"/>
<path d="M10.1 1.25H9.89998C8.19711 1.25 6.81665 2.63046 6.81665 4.33333V9.3C6.81665 11.0029 8.19711 12.3833 9.89998 12.3833H10.1C11.8029 12.3833 13.1833 11.0029 13.1833 9.3V4.33333C13.1833 2.63046 11.8029 1.25 10.1 1.25Z" stroke="#49433E" stroke-width="1.5" stroke-miterlimit="10"/>
<path d="M16.3666 9.20801C16.3644 10.8951 15.6927 12.5124 14.4989 13.7045C13.3052 14.8967 11.6871 15.5663 9.99997 15.5663C8.31287 15.5663 6.69474 14.8967 5.501 13.7045C4.30726 12.5124 3.63551 10.8951 3.6333 9.20801" stroke="#49433E" stroke-width="1.5" stroke-miterlimit="10"/>
<path d="M7.6167 18.75H12.3834" stroke="#49433E" stroke-width="1.5" stroke-miterlimit="10"/>
</svg>
