<svg width="16" height="16" viewBox="0 0 16 16" fill="none" xmlns="http://www.w3.org/2000/svg">
<g clip-path="url(#clip0_51_757)">
<path d="M13.7266 8C13.7274 7.64869 13.6939 7.29815 13.6266 6.95333L15.02 6.15333L13.1066 2.82L11.72 3.62C11.1839 3.16576 10.5694 2.8133 9.90665 2.58V1H6.09331V2.60667C5.43056 2.83997 4.81602 3.19243 4.27998 3.64667L2.89331 2.84667L0.97998 6.18L2.37331 6.98C2.23996 7.67141 2.23996 8.38193 2.37331 9.07333L0.97998 9.87333L2.89331 13.2067L4.27998 12.4067C4.81602 12.8609 5.43056 13.2134 6.09331 13.4467V15H9.90665V13.3933C10.5694 13.16 11.1839 12.8076 11.72 12.3533L13.1066 13.1533L15.02 9.82L13.6266 9.02C13.6922 8.68393 13.7256 8.3424 13.7266 8Z" stroke="#49433E" stroke-width="1.5" stroke-miterlimit="10"/>
<path d="M8.00004 10.5465C9.40652 10.5465 10.5467 9.40628 10.5467 7.99979C10.5467 6.59331 9.40652 5.45312 8.00004 5.45312C6.59355 5.45312 5.45337 6.59331 5.45337 7.99979C5.45337 9.40628 6.59355 10.5465 8.00004 10.5465Z" stroke="#49433E" stroke-width="1.5" stroke-miterlimit="10"/>
</g>
<defs>
<clipPath id="clip0_51_757">
<rect width="16" height="16" fill="white"/>
</clipPath>
</defs>
</svg>
