<svg width="16" height="16" viewBox="0 0 16 16" fill="none" xmlns="http://www.w3.org/2000/svg">
<g clip-path="url(#clip0_238_2579)">
<path d="M8 0.333496V1.6135" stroke="#4E4741" stroke-width="1.2" stroke-miterlimit="10"/>
<path d="M8 14.3867V15.6667" stroke="#4E4741" stroke-width="1.2" stroke-miterlimit="10"/>
<path d="M15.6667 8H14.3867" stroke="#4E4741" stroke-width="1.2" stroke-miterlimit="10"/>
<path d="M1.6135 8H0.333496" stroke="#4E4741" stroke-width="1.2" stroke-miterlimit="10"/>
<path d="M8 0.333496V1.6135" stroke="#4E4741" stroke-width="1.2" stroke-miterlimit="10"/>
<path d="M8 14.3867V15.6667" stroke="#4E4741" stroke-width="1.2" stroke-miterlimit="10"/>
<path d="M15.6667 8H14.3867" stroke="#4E4741" stroke-width="1.2" stroke-miterlimit="10"/>
<path d="M1.6135 8H0.333496" stroke="#4E4741" stroke-width="1.2" stroke-miterlimit="10"/>
<path d="M13.42 2.58008L12.52 3.48008" stroke="#4E4741" stroke-width="1.2" stroke-miterlimit="10"/>
<path d="M3.48008 12.5195L2.58008 13.4195" stroke="#4E4741" stroke-width="1.2" stroke-miterlimit="10"/>
<path d="M13.42 13.4195L12.52 12.5195" stroke="#4E4741" stroke-width="1.2" stroke-miterlimit="10"/>
<path d="M3.48008 3.48008L2.58008 2.58008" stroke="#4E4741" stroke-width="1.2" stroke-miterlimit="10"/>
<path d="M13.42 2.58008L12.52 3.48008" stroke="#4E4741" stroke-width="1.2" stroke-miterlimit="10"/>
<path d="M3.48008 12.5195L2.58008 13.4195" stroke="#4E4741" stroke-width="1.2" stroke-miterlimit="10"/>
<path d="M13.42 13.4195L12.52 12.5195" stroke="#4E4741" stroke-width="1.2" stroke-miterlimit="10"/>
<path d="M3.48008 3.48008L2.58008 2.58008" stroke="#4E4741" stroke-width="1.2" stroke-miterlimit="10"/>
<path d="M8.00019 12.4735C10.4707 12.4735 12.4735 10.4707 12.4735 8.00019C12.4735 5.52963 10.4707 3.52686 8.00019 3.52686C5.52963 3.52686 3.52686 5.52963 3.52686 8.00019C3.52686 10.4707 5.52963 12.4735 8.00019 12.4735Z" stroke="#4E4741" stroke-width="1.2" stroke-miterlimit="10"/>
</g>
<defs>
<clipPath id="clip0_238_2579">
<rect width="16" height="16" fill="white"/>
</clipPath>
</defs>
</svg>
