<svg width="20" height="20" viewBox="0 0 20 20" fill="none" xmlns="http://www.w3.org/2000/svg">
<path d="M2.84167 11.5915C3.72072 11.5915 4.43333 10.8789 4.43333 9.99987C4.43333 9.12082 3.72072 8.4082 2.84167 8.4082C1.96261 8.4082 1.25 9.12082 1.25 9.99987C1.25 10.8789 1.96261 11.5915 2.84167 11.5915Z" stroke="#7E746B" stroke-width="1.2" stroke-miterlimit="10"/>
<path d="M9.99987 11.5915C10.8789 11.5915 11.5915 10.8789 11.5915 9.99987C11.5915 9.12082 10.8789 8.4082 9.99987 8.4082C9.12082 8.4082 8.4082 9.12082 8.4082 9.99987C8.4082 10.8789 9.12082 11.5915 9.99987 11.5915Z" stroke="#7E746B" stroke-width="1.2" stroke-miterlimit="10"/>
<path d="M17.1581 11.5915C18.0371 11.5915 18.7497 10.8789 18.7497 9.99987C18.7497 9.12082 18.0371 8.4082 17.1581 8.4082C16.279 8.4082 15.5664 9.12082 15.5664 9.99987C15.5664 10.8789 16.279 11.5915 17.1581 11.5915Z" stroke="#7E746B" stroke-width="1.2" stroke-miterlimit="10"/>
</svg>
