<svg width="16" height="16" viewBox="0 0 16 16" fill="none" xmlns="http://www.w3.org/2000/svg">
<path d="M11.2534 15.0002H4.74674C4.42204 15.0007 4.10956 14.8764 3.87384 14.6531C3.63812 14.4298 3.49716 14.1245 3.48007 13.8002L2.90674 3.54688H13.0934L12.5201 13.8002C12.503 14.1245 12.362 14.4298 12.1263 14.6531C11.8906 14.8764 11.5781 15.0007 11.2534 15.0002Z" stroke="#4E4741" stroke-width="1.2" stroke-miterlimit="10"/>
<path d="M1.6333 3.54688H14.3666" stroke="#4E4741" stroke-width="1.2" stroke-miterlimit="10"/>
<path d="M6.7267 1H9.27337C9.61108 1 9.93496 1.13415 10.1738 1.37295C10.4125 1.61175 10.5467 1.93562 10.5467 2.27333V3.54667H5.45337V2.27333C5.45337 1.93562 5.58752 1.61175 5.82632 1.37295C6.06512 1.13415 6.38899 1 6.7267 1Z" stroke="#4E4741" stroke-width="1.2" stroke-miterlimit="10"/>
<path d="M8 5.45312V13.0931" stroke="#4E4741" stroke-width="1.2" stroke-miterlimit="10"/>
<path d="M10.5466 5.45312V13.0931" stroke="#4E4741" stroke-width="1.2" stroke-miterlimit="10"/>
<path d="M5.45337 5.45312V13.0931" stroke="#4E4741" stroke-width="1.2" stroke-miterlimit="10"/>
</svg>
